<?xml version="1.0" encoding="utf-8"?>
<!-- Generator: Adobe Illustrator 20.1.0, SVG Export Plug-In . SVG Version: 6.00 Build 0)  -->
<svg version="1.1" id="Layer_1" xmlns="http://www.w3.org/2000/svg" xmlns:xlink="http://www.w3.org/1999/xlink" x="0px" y="0px"
	 viewBox="0 0 344 132.7" style="enable-background:new 0 0 344 132.7;" xml:space="preserve">
<style type="text/css">
	.st0{fill:#161616;}
	.st1{fill:#151616;}
	.st2{enable-background:new    ;}
	.st3{clip-path:url(#SVGID_2_);enable-background:new    ;}
	.st4{clip-path:url(#SVGID_4_);}
	.st5{clip-path:url(#SVGID_6_);enable-background:new    ;}
	.st6{fill:#229BFF;}
	.st7{fill:#48B5FF;}
	.st8{clip-path:url(#SVGID_8_);}
	.st9{clip-path:url(#SVGID_10_);}
	.st10{fill:#FF6700;}
	.st11{fill:#90E227;}
	.st12{fill:#B2FF4D;}
	.st13{font-family:'Bree-Regular';}
	.st14{font-size:39px;}
	.st15{letter-spacing:8;}
	.st16{font-size:29px;}
	.st17{letter-spacing:-2;}
</style>
<g>
	<g>
		<polygon class="st0" points="138.2,78.7 128.7,73.4 106.7,44.7 116.3,49.9 		"/>
	</g>
	<g>
		<polygon class="st0" points="133.3,52.9 123.7,47.7 131.5,49.1 141.1,54.3 		"/>
	</g>
	<g>
		<polygon class="st1" points="116.3,49.9 106.7,44.7 114.3,46 123.8,51.3 		"/>
	</g>
	<g class="st2">
		<defs>
			<path id="SVGID_1_" class="st2" d="M80.7,100.9l-9.6-5.2c5,2.7,10.2,4.6,15.4,5.7l9.6,5.2C90.9,105.5,85.6,103.6,80.7,100.9z"/>
		</defs>
		<use xlink:href="#SVGID_1_"  style="overflow:visible;fill:#161616;"/>
		<clipPath id="SVGID_2_">
			<use xlink:href="#SVGID_1_"  style="overflow:visible;"/>
		</clipPath>
		<g class="st3">
			<path class="st0" d="M80.7,100.9l-9.6-5.2c0.7,0.4,1.5,0.8,2.2,1.1l9.6,5.2C82.1,101.7,81.4,101.3,80.7,100.9"/>
			<path class="st0" d="M86.5,101.4c-1-0.2-2-0.4-2.9-0.7c-3.5-0.9-7-2.2-10.3-3.9l9.6,5.2c3.4,1.7,6.8,3,10.3,3.9
				c1,0.3,1.9,0.5,2.9,0.7L86.5,101.4z"/>
		</g>
	</g>
	<g class="st2">
		<defs>
			<path id="SVGID_3_" class="st2" d="M88.9,22c3.2,1.7,6.4,3.5,9.6,5.2c9.7,5.3,18.4,13.4,24.5,22.6c0.3,0.5,0.6,0.9,0.9,1.4
				l-9.6-5.2c-0.3-0.5-0.6-0.9-0.9-1.4C107.3,35.4,98.6,27.3,88.9,22z"/>
		</defs>
		<use xlink:href="#SVGID_3_"  style="overflow:visible;fill:#161616;"/>
		<clipPath id="SVGID_4_">
			<use xlink:href="#SVGID_3_"  style="overflow:visible;"/>
		</clipPath>
		<g class="st4">
			<path class="st0" d="M123.8,51.3l-9.6-5.2c-0.3-0.5-0.6-0.9-0.9-1.4c-6.1-9.3-14.8-17.4-24.5-22.6l9.6,5.2
				c9.7,5.3,18.4,13.4,24.5,22.6C123.3,50.3,123.6,50.8,123.8,51.3"/>
		</g>
	</g>
	<g>
		<polygon class="st0" points="93.4,24.8 83.8,19.6 90.3,17.4 99.9,22.6 		"/>
	</g>
	<g>
		<polygon class="st1" points="99.9,22.6 90.3,17.4 77.6,8.6 87.2,13.8 		"/>
	</g>
	<g class="st2">
		<defs>
			<path id="SVGID_5_" class="st2" d="M89,13.6l9.6,5.2c-3.7-2-7.5-3.7-11.4-5l-9.6-5.2C81.5,9.9,85.3,11.6,89,13.6z"/>
		</defs>
		<use xlink:href="#SVGID_5_"  style="overflow:visible;fill:#161616;"/>
		<clipPath id="SVGID_6_">
			<use xlink:href="#SVGID_5_"  style="overflow:visible;"/>
		</clipPath>
		<g class="st5">
			<path class="st0" d="M87.2,13.8l-9.6-5.2c2.9,1,5.7,2.2,8.5,3.5l9.6,5.2C92.9,16,90.1,14.8,87.2,13.8"/>
			<path class="st0" d="M95.7,17.4l-9.6-5.2c1,0.5,1.9,1,2.8,1.5l9.6,5.2C97.6,18.3,96.7,17.8,95.7,17.4"/>
		</g>
	</g>
	<g>
		<path class="st6" d="M87.2,13.8c18.2,6.2,35.3,20.8,45.3,37.8c0.2,0.4,0.5,0.9,0.8,1.3l7.8,1.4l-2.8,24.4l-22-28.7l7.6,1.3
			c-0.3-0.5-0.6-0.9-0.9-1.4c-7.1-10.9-17.9-20.2-29.6-25.1l6.5-2.1L87.2,13.8z"/>
		<path class="st7" d="M123.7,54.4l6.5,1.2l-3.6-6c-0.3-0.5-0.6-1-0.9-1.5c-6.1-9.3-14.6-17.3-24-22.8l1.1-0.4
			c10.8,7.1,20.5,17,27.1,28.2l1.5,2.6l6.3,1.1L136,70.6L123.7,54.4z"/>
	</g>
	<g class="st2">
		<defs>
			<path id="SVGID_7_" class="st2" d="M73.9,116c-3.2-1.7-6.4-3.5-9.6-5.2c-16.8-9.1-31.3-24.9-38.8-43.5c-0.3-0.7-0.6-1.4-0.8-2.1
				l9.6,5.2c0.2,0.7,0.5,1.4,0.8,2.1C42.6,91.1,57.1,106.9,73.9,116z"/>
		</defs>
		<use xlink:href="#SVGID_7_"  style="overflow:visible;fill:#161616;"/>
		<clipPath id="SVGID_8_">
			<use xlink:href="#SVGID_7_"  style="overflow:visible;"/>
		</clipPath>
		<g class="st8">
			<path class="st0" d="M73.9,116l-9.6-5.2c-16.8-9.1-31.3-24.9-38.8-43.5c-0.3-0.7-0.6-1.4-0.8-2.1l9.6,5.2
				c0.2,0.7,0.5,1.4,0.8,2.1C42.6,91.1,57.1,106.9,73.9,116"/>
		</g>
	</g>
	<g>
		<polygon class="st0" points="16.1,69 6.6,63.8 30.2,31.3 39.7,36.5 		"/>
	</g>
</g>
<g>
	<g>
		<g class="st2">
			<defs>
				<polygon id="SVGID_9_" class="st2" points="45.6,106.7 53.1,12.6 123.5,30.1 127.8,100.2 				"/>
			</defs>
			<clipPath id="SVGID_10_">
				<use xlink:href="#SVGID_9_"  style="overflow:visible;"/>
			</clipPath>
			<g class="st9">
				<g>
					<g>
						<g>
							<path class="st10" d="M95.9,77.8c-0.2-0.6-0.4-1.2-0.5-1.9c-0.1-0.6-0.1-1.3-0.1-1.8c0-0.6,0.1-1.1,0.2-1.4
								c0.1-0.4,0.3-0.7,0.5-0.8c0.3-0.2,0.6-0.3,0.9-0.5c0.3-0.1,0.5-0.2,0.7-0.3c0.2-0.1,0.5-0.2,0.7-0.2c0.2,0,0.4-0.1,0.6,0
								c0.3,0,0.6,0.1,0.9,0.3c0.3,0.2,0.6,0.4,0.9,0.7c0.3,0.3,0.7,0.7,1,1.2c0.4,0.5,0.8,1.1,1.2,1.8c-0.6,0.3-1.2,0.5-1.8,0.8
								c-0.6,0.3-1.2,0.5-1.8,0.7c-0.6,0.2-1.2,0.5-1.8,0.7C97.1,77.3,96.5,77.5,95.9,77.8 M90.6,77c-0.5,0-1.1-0.1-1.7-0.3
								c-0.6-0.2-1.2-0.4-1.9-0.7c-0.6-0.3-1.3-0.7-1.9-1.1c-0.6-0.4-1.2-0.9-1.7-1.4c0.4-0.2,0.7-0.6,0.9-0.9
								c0.3-0.4,0.5-0.7,0.8-1.1c0.3-0.4,0.5-0.7,0.9-0.9c0.3-0.2,0.7-0.4,1.1-0.3c0,0,0.1,0,0.1,0c0,0,0.1,0,0.1,0c0,0,0.1,0,0.1,0
								c0,0,0.1,0,0.1,0c0.9,0.3,1.6,0.6,2.2,0.9c0.5,0.3,0.9,0.7,1.1,1.2c0.2,0.5,0.3,1.1,0.3,1.8c0,0.7-0.1,1.6-0.3,2.7
								c0,0-0.1,0-0.1,0c0,0-0.1,0-0.1,0c0,0-0.1,0-0.1,0C90.6,77,90.6,77,90.6,77 M105.3,71.4c-0.2-0.3-0.4-0.6-0.7-0.9
								c-0.2-0.3-0.5-0.6-0.7-0.9c-0.2-0.3-0.4-0.6-0.7-0.9c-0.2-0.3-0.4-0.6-0.6-0.9c-0.1-0.1-0.1-0.2-0.1-0.3c0-0.1,0-0.2,0-0.4
								c0-0.1,0-0.3,0-0.4c0-0.1,0-0.2,0.1-0.3c0.3-0.7,0.5-1.3,0.7-1.7c0.2-0.4,0.4-0.8,0.6-1c0.2-0.2,0.4-0.4,0.8-0.4
								c0.3-0.1,0.7-0.1,1.2,0c0.1,0,0.2,0,0.3,0c0.1,0,0.2,0,0.3,0c0.1,0,0.2,0,0.4,0c0.1,0,0.3,0,0.4,0.1c0.1,0,0.1,0,0.2,0
								c0.1,0,0.2,0,0.3,0.1c0.1,0,0.2,0.1,0.4,0.1c0.1,0,0.3,0.1,0.5,0.1c-0.2,0.7-0.5,1.3-0.7,1.9c-0.2,0.6-0.4,1.3-0.7,1.9
								c-0.2,0.6-0.4,1.2-0.6,1.8c-0.2,0.6-0.4,1.2-0.6,1.8c-0.1,0-0.1,0-0.2,0c-0.1,0-0.1,0-0.2,0c-0.1,0-0.1,0-0.2,0
								C105.4,71.4,105.4,71.4,105.3,71.4 M77.9,61c0.1,0,0.2,0,0.3,0c0.1,0,0.2,0,0.3,0c0.1,0,0.2,0,0.3,0c0.1,0,0.2,0,0.3,0
								c0.1,0,0.2,0,0.3,0c0.1,0,0.2,0,0.3,0c0.1,0,0.2,0,0.3,0c0.1,0,0.2,0,0.3,0c0.2,0,0.4,0.1,0.6,0.1c0.2,0.1,0.4,0.1,0.5,0.3
								c0.2,0.1,0.3,0.3,0.5,0.5c0.2,0.2,0.3,0.4,0.4,0.7c0.1,0.3,0.3,0.6,0.4,1c0.2,0.3,0.3,0.7,0.4,1c0.1,0.3,0.2,0.7,0.3,1
								c0,0.3,0,0.6,0,0.8c-0.1,0.3-0.3,0.7-0.5,1c-0.2,0.3-0.5,0.6-0.8,0.9c-0.3,0.3-0.6,0.6-0.9,0.9c-0.3,0.3-0.7,0.6-1,1
								c-0.5-0.8-0.9-1.5-1.3-2.3c-0.4-0.7-0.7-1.5-1-2.2c-0.3-0.8-0.5-1.5-0.7-2.3c-0.2-0.8-0.3-1.6-0.3-2.5c0.1,0,0.2,0.1,0.3,0.1
								c0.1,0,0.2,0.1,0.3,0.1c0.1,0,0.2,0,0.3,0.1C77.7,61,77.8,61,77.9,61 M93.3,65.6C93.3,65.6,93.3,65.6,93.3,65.6
								C93.2,65.6,93.2,65.6,93.3,65.6C93.2,65.6,93.2,65.6,93.3,65.6C93.2,65.6,93.2,65.6,93.3,65.6c-0.8-0.1-1.5-0.3-2.1-0.6
								c-0.6-0.3-1.2-0.8-1.7-1.4c-0.5-0.6-0.9-1.2-1.1-1.9c-0.3-0.7-0.4-1.5-0.4-2.3c0-0.8,0.2-1.5,0.4-2.2
								c0.3-0.7,0.7-1.2,1.2-1.7c0.5-0.5,1.1-0.8,1.7-1c0.6-0.2,1.3-0.3,2-0.2c0,0,0,0,0,0c0,0,0,0,0,0s0,0,0,0c0,0,0,0,0,0
								c0.7,0.1,1.4,0.3,2,0.7c0.6,0.4,1.2,0.8,1.6,1.4c0.5,0.5,0.8,1.2,1.1,1.9c0.3,0.7,0.4,1.4,0.4,2.1c0,0.8-0.1,1.5-0.4,2.1
								c-0.3,0.6-0.6,1.2-1.1,1.7c-0.5,0.5-1,0.9-1.7,1.1C94.7,65.6,94,65.7,93.3,65.6 M79.9,56.3c-0.2,0-0.4-0.1-0.7-0.1
								c-0.2,0-0.5-0.1-0.8-0.1c-0.3-0.1-0.6-0.1-0.9-0.2c-0.3-0.1-0.7-0.1-1.1-0.2c0.3-0.7,0.6-1.3,0.9-2c0.3-0.6,0.6-1.3,0.9-1.9
								c0.3-0.6,0.6-1.2,0.8-1.8c0.3-0.6,0.5-1.2,0.8-1.8c0.1,0,0.1,0,0.2,0c0.1,0,0.1,0,0.2,0c0.1,0,0.1,0,0.2,0c0.1,0,0.1,0,0.2,0
								c0.2,0.4,0.5,0.8,0.9,1.2c0.4,0.3,0.8,0.7,1.1,1c0.4,0.3,0.7,0.7,0.8,1.1c0.2,0.4,0.2,0.9,0,1.4c-0.2,0.7-0.4,1.3-0.7,1.7
								c-0.2,0.5-0.4,0.8-0.6,1.1c-0.2,0.3-0.5,0.4-0.9,0.5C80.8,56.3,80.4,56.3,79.9,56.3 M106,59c-0.1,0-0.3,0-0.4,0
								c-0.1,0-0.3,0-0.4-0.1c-0.1,0-0.3,0-0.4-0.1c-0.1,0-0.3,0-0.4-0.1c-0.1,0-0.2-0.1-0.3-0.1c-0.1-0.1-0.2-0.1-0.3-0.2
								c-0.1-0.1-0.2-0.2-0.2-0.3c-0.1-0.1-0.1-0.2-0.2-0.3c-0.3-0.8-0.6-1.5-0.7-2c-0.2-0.5-0.2-0.9-0.2-1.2c0.1-0.3,0.2-0.6,0.5-1
								c0.3-0.4,0.7-0.7,1.2-1.3c0.1-0.1,0.1-0.1,0.2-0.2c0.1-0.1,0.2-0.1,0.2-0.2c0.1-0.1,0.2-0.1,0.3-0.2c0.1-0.1,0.2-0.2,0.3-0.3
								c0.4,0.6,0.8,1.2,1.1,1.8c0.3,0.6,0.6,1.2,0.8,1.8c0.2,0.6,0.4,1.3,0.6,2c0.2,0.7,0.3,1.4,0.4,2.1c-0.2,0-0.4,0-0.6-0.1
								c-0.2,0-0.4,0-0.5-0.1c-0.2,0-0.4,0-0.5-0.1C106.3,59,106.2,59,106,59 M87,49.2c-0.2-0.3-0.5-0.6-0.7-0.9
								c-0.2-0.3-0.5-0.6-0.8-1c-0.3-0.3-0.5-0.7-0.8-1.1c-0.3-0.4-0.6-0.7-0.9-1.1c0.5-0.4,1.1-0.7,1.6-0.9
								c0.6-0.3,1.2-0.5,1.8-0.6c0.6-0.2,1.2-0.3,1.9-0.4c0.7-0.1,1.4-0.1,2.1-0.1c0,0.4,0,0.8,0,1.2c0,0.4,0,0.8,0,1.1
								c0,0.4,0,0.7,0,1.1c0,0.4,0,0.7,0,1.1c0,0.1,0,0.1-0.1,0.2c0,0.1-0.1,0.1-0.2,0.2c-0.1,0.1-0.1,0.1-0.2,0.2
								c-0.1,0-0.2,0.1-0.2,0.1c-0.3,0.1-0.5,0.2-0.8,0.2c-0.3,0.1-0.6,0.2-0.8,0.2c-0.3,0.1-0.6,0.2-0.9,0.2
								C87.6,49.1,87.3,49.1,87,49.2 M98.8,50.7c-0.2,0-0.3-0.1-0.5-0.2c-0.2-0.1-0.4-0.2-0.6-0.3c-0.2-0.1-0.5-0.3-0.8-0.5
								c-0.3-0.2-0.6-0.4-0.9-0.7c-0.1-0.1-0.1-0.1-0.2-0.2c-0.1-0.1-0.1-0.2-0.2-0.3c-0.1-0.1-0.1-0.2-0.1-0.3
								c0-0.1-0.1-0.2-0.1-0.3c0-0.3,0-0.7,0-1c0-0.3,0-0.7,0-1c0-0.3,0-0.7,0-1.1c0-0.4,0-0.7,0-1.1c0.7,0.2,1.4,0.4,2,0.7
								c0.6,0.3,1.2,0.6,1.8,0.9c0.6,0.3,1.1,0.7,1.7,1.2c0.5,0.4,1.1,0.9,1.6,1.4c-0.1,0.1-0.2,0.2-0.3,0.3
								c-0.1,0.1-0.2,0.2-0.2,0.3c-0.1,0.1-0.1,0.2-0.2,0.2c-0.1,0.1-0.1,0.1-0.2,0.2c-0.3,0.3-0.6,0.6-0.9,0.8
								c-0.3,0.2-0.5,0.4-0.7,0.6c-0.2,0.1-0.4,0.3-0.6,0.3C99.2,50.7,99,50.7,98.8,50.7 M98.1,23.8c-0.2,0-0.3,0-0.5,0
								c-0.1,0-0.3,0.1-0.4,0.2c-0.1,0.1-0.2,0.2-0.3,0.4c-0.1,0.2-0.2,0.3-0.3,0.5c-0.2,0.6-0.5,1.1-0.8,1.7
								c-0.3,0.6-0.5,1.1-0.8,1.7c-0.3,0.6-0.6,1.2-0.9,1.8c-0.3,0.6-0.6,1.2-0.9,1.9c-0.3-0.8-0.6-1.5-0.9-2.3
								c-0.3-0.7-0.6-1.5-0.9-2.2c-0.3-0.7-0.6-1.4-0.8-2.1c-0.3-0.7-0.5-1.4-0.8-2c-0.1-0.2-0.2-0.5-0.3-0.7
								c-0.1-0.2-0.2-0.4-0.4-0.5c-0.1-0.2-0.3-0.3-0.4-0.4c-0.2-0.1-0.3-0.2-0.5-0.2c-0.1,0-0.1,0-0.2,0c-0.1,0-0.1,0-0.2,0
								c-0.1,0-0.2,0-0.2,0c-0.1,0-0.2,0-0.2,0c-0.3,0.1-0.6,0.2-0.9,0.3c-0.2,0.2-0.4,0.4-0.6,0.6c-0.1,0.2-0.2,0.5-0.2,0.8
								c0,0.3,0,0.6,0.2,1c0.2,0.5,0.3,0.9,0.5,1.4c0.2,0.5,0.3,0.9,0.5,1.4c0.2,0.5,0.3,0.9,0.5,1.4c0.2,0.5,0.3,0.9,0.5,1.4
								c0,0.1,0.1,0.3,0.1,0.4c0,0.1,0.1,0.3,0.1,0.4c0,0.1,0,0.3,0,0.4c0,0.1,0,0.2-0.1,0.3c-0.2,0.4-0.4,0.8-0.5,1.2
								c-0.1,0.4-0.1,0.8,0,1.2c0.1,0.4,0.3,0.8,0.6,1.1c0.3,0.4,0.6,0.7,1,1.1c0.1,0.1,0.1,0.1,0.2,0.2c0.1,0.1,0.1,0.1,0.1,0.2
								c0,0.1,0.1,0.1,0.1,0.2c0,0.1,0.1,0.1,0.1,0.2c-0.8,0.2-1.5,0.4-2.3,0.6c-0.8,0.2-1.5,0.4-2.3,0.6c-0.8,0.2-1.6,0.4-2.4,0.6
								c-0.8,0.2-1.6,0.4-2.4,0.6c0-0.2,0-0.5,0-0.7c0-0.2,0-0.5,0-0.7c0-0.2,0-0.5,0-0.7c0-0.2,0-0.5,0-0.7c0-0.1,0-0.3-0.1-0.4
								c0-0.2-0.1-0.3-0.2-0.5c-0.1-0.1-0.2-0.3-0.2-0.4c-0.1-0.1-0.2-0.2-0.3-0.3c-0.5-0.3-0.9-0.5-1.2-0.9c-0.3-0.3-0.6-0.7-0.9-1
								c-0.3-0.4-0.5-0.8-0.6-1.2c-0.2-0.4-0.3-0.9-0.5-1.3c-0.1-0.3-0.2-0.6-0.3-0.9c-0.1-0.3-0.2-0.6-0.3-0.9
								c-0.1-0.3-0.2-0.6-0.4-0.9c-0.1-0.3-0.2-0.6-0.4-0.9c-0.1-0.3-0.3-0.6-0.5-0.9c-0.2-0.3-0.4-0.5-0.6-0.7
								c-0.2-0.2-0.5-0.4-0.8-0.5c-0.3-0.1-0.6-0.2-0.8-0.3c-0.1,0-0.2,0-0.3-0.1c-0.1,0-0.2,0-0.3,0c-0.1,0-0.2,0-0.3,0
								c-0.1,0-0.2,0-0.3,0.1c-0.4,0.1-0.7,0.2-0.9,0.4c-0.2,0.2-0.3,0.4-0.3,0.7c0,0.3,0.1,0.6,0.1,0.9c0.1,0.3,0.2,0.6,0.3,1
								c0.3,0.7,0.5,1.5,0.7,2.2c0.2,0.7,0.5,1.5,0.7,2.2c0.2,0.8,0.5,1.5,0.8,2.3c0.3,0.8,0.5,1.6,0.8,2.4
								c-0.2-0.1-0.5-0.2-0.7-0.3c-0.2-0.1-0.4-0.2-0.5-0.2c-0.2-0.1-0.3-0.1-0.5-0.2c-0.1-0.1-0.3-0.1-0.4-0.2
								c-0.6-0.3-1.2-0.7-1.8-1c-0.6-0.3-1.2-0.7-1.8-1c-0.6-0.3-1.2-0.7-1.9-1c-0.6-0.3-1.2-0.7-1.9-1.1c-0.1-0.1-0.3-0.1-0.4-0.2
								c-0.1-0.1-0.3-0.1-0.4-0.2c-0.1-0.1-0.2-0.1-0.4-0.1c-0.1,0-0.2-0.1-0.4-0.1c-0.2,0-0.3,0-0.5,0c-0.2,0-0.3,0-0.4,0.1
								c-0.1,0.1-0.3,0.1-0.4,0.3c-0.1,0.1-0.3,0.3-0.4,0.4c-0.2,0.3-0.3,0.7-0.4,1.1c-0.1,0.4,0,0.8,0.1,1.2
								c0.1,0.4,0.3,0.8,0.5,1.1c0.2,0.3,0.5,0.6,0.8,0.8c0.5,0.3,1,0.6,1.5,0.9c0.5,0.3,1,0.6,1.5,0.9c0.5,0.3,1,0.6,1.5,0.9
								c0.5,0.3,1,0.6,1.5,0.9c0.1,0.1,0.3,0.2,0.5,0.3c0.2,0.1,0.3,0.2,0.5,0.3c0.1,0.1,0.3,0.2,0.4,0.4c0.1,0.1,0.2,0.3,0.2,0.4
								c0.1,0.5,0.3,0.9,0.5,1.3c0.2,0.4,0.5,0.7,0.8,0.9c0.3,0.2,0.6,0.4,1,0.6c0.3,0.1,0.7,0.2,1.1,0.3c0.1,0,0.2,0,0.3,0
								c0.1,0,0.2,0,0.3,0c0.1,0,0.2,0,0.4,0c0.1,0,0.2,0,0.4,0c0,0,0,0,0,0c0,0,0,0,0,0c0,0,0,0,0,0c0,0,0,0,0,0c0.1,0,0.1,0,0.2,0
								c0.1,0,0.1,0,0.2,0.1c0,0,0.1,0,0.1,0.1c0,0,0.1,0,0.1,0c-0.4,0.8-0.7,1.5-1.1,2.3c-0.4,0.8-0.8,1.6-1.1,2.4
								c-0.4,0.8-0.8,1.6-1.2,2.5c-0.4,0.9-0.8,1.7-1.3,2.7c-0.2-0.2-0.3-0.5-0.5-0.7c-0.2-0.2-0.3-0.5-0.5-0.7
								c-0.2-0.2-0.3-0.4-0.5-0.6c-0.2-0.2-0.3-0.4-0.5-0.6c-0.1-0.1-0.2-0.2-0.3-0.3c-0.1-0.1-0.3-0.2-0.4-0.2
								c-0.1-0.1-0.3-0.1-0.4-0.2c-0.1-0.1-0.3-0.1-0.4-0.1c0,0-0.1,0-0.1,0c0,0-0.1,0-0.1,0c0,0-0.1,0-0.1,0c0,0-0.1,0-0.1,0
								c-0.2,0.1-0.4,0.1-0.6,0.2c-0.2,0-0.4,0.1-0.6,0.1c-0.2,0-0.4,0-0.5,0c-0.2,0-0.4,0-0.5,0c-0.3,0-0.6-0.1-0.9-0.2
								c-0.3-0.1-0.6-0.2-0.9-0.3c-0.3-0.1-0.6-0.3-0.9-0.4c-0.3-0.2-0.6-0.3-0.9-0.5c-0.4-0.2-0.7-0.4-1.1-0.6
								c-0.4-0.2-0.7-0.4-1.1-0.6c-0.4-0.2-0.8-0.4-1.1-0.6c-0.4-0.2-0.8-0.4-1.1-0.6c-0.1,0-0.2-0.1-0.3-0.1
								c-0.1,0-0.2-0.1-0.3-0.1c-0.1,0-0.2-0.1-0.3-0.1c-0.1,0-0.2,0-0.3-0.1c-0.3,0-0.7,0-1,0c-0.3,0.1-0.6,0.2-0.9,0.3
								c-0.3,0.1-0.6,0.3-0.8,0.6c-0.2,0.2-0.4,0.5-0.6,0.8c-0.2,0.4-0.3,0.8-0.3,1.1c0,0.3,0.1,0.6,0.3,0.9
								c0.2,0.3,0.4,0.5,0.7,0.7c0.3,0.2,0.7,0.4,1,0.6c0.8,0.4,1.6,0.9,2.5,1.3c0.8,0.4,1.6,0.9,2.5,1.3c0.8,0.5,1.7,0.9,2.5,1.4
								c0.9,0.5,1.7,1,2.7,1.5c-0.7,0.2-1.3,0.4-1.9,0.6c-0.6,0.2-1.2,0.4-1.7,0.6c-0.6,0.2-1.1,0.4-1.6,0.6
								c-0.5,0.2-1.1,0.4-1.6,0.6c-0.6,0.2-1.1,0.4-1.7,0.6c-0.6,0.2-1.1,0.4-1.7,0.6c-0.6,0.2-1.1,0.4-1.7,0.7
								c-0.6,0.2-1.1,0.4-1.7,0.7c0,0.1,0,0.2,0,0.3c0,0.1,0,0.2,0,0.3c0,0.1,0,0.2,0,0.3c0,0.1,0,0.2,0,0.3
								c0.1,0.1,0.2,0.2,0.2,0.4c0.1,0.1,0.1,0.2,0.2,0.4c0.1,0.1,0.2,0.2,0.2,0.4c0.1,0.1,0.2,0.2,0.2,0.3c0.2,0.2,0.4,0.5,0.6,0.7
								c0.2,0.2,0.4,0.4,0.6,0.5c0.2,0.2,0.4,0.3,0.7,0.4c0.2,0.1,0.5,0.1,0.8,0.2c0.1,0,0.2,0,0.4,0c0.1,0,0.3,0,0.4-0.1
								c0.1,0,0.3-0.1,0.4-0.1c0.1,0,0.3-0.1,0.5-0.2c0.4-0.2,0.8-0.3,1.2-0.5c0.4-0.1,0.8-0.2,1.2-0.4c0.4-0.1,0.8-0.2,1.2-0.3
								c0.4-0.1,0.8-0.2,1.2-0.4c0.3-0.1,0.6-0.2,0.9-0.3c0.3-0.1,0.6-0.2,0.9-0.2c0.3-0.1,0.6-0.1,0.9-0.1c0.3,0,0.6,0,0.9,0
								c0.2,0,0.4,0,0.6,0.1c0.2,0,0.4,0.1,0.6,0.1c0.2,0.1,0.4,0.1,0.6,0.2c0.2,0.1,0.4,0.2,0.6,0.3c0,0,0.1,0,0.1,0s0.1,0,0.1,0
								c0,0,0.1,0,0.1,0s0.1,0,0.1,0c0.1,0,0.3,0,0.5,0c0.2,0,0.3-0.1,0.5-0.1c0.2-0.1,0.3-0.1,0.5-0.2c0.2-0.1,0.3-0.2,0.4-0.2
								c0.2-0.1,0.4-0.3,0.7-0.5c0.2-0.2,0.4-0.3,0.6-0.5c0.2-0.2,0.4-0.4,0.6-0.5c0.2-0.2,0.4-0.4,0.6-0.5c0.3,1,0.7,1.9,1,2.9
								c0.3,1,0.7,1.9,1,2.9c0.3,1,0.7,1.9,1,2.9c0.3,1,0.7,1.9,1,2.9c0,0-0.1,0-0.1,0c0,0-0.1,0-0.1,0.1c-0.1,0-0.1,0-0.2,0
								c-0.1,0-0.1,0-0.2,0c0,0,0,0,0,0c0,0,0,0,0,0c0,0,0,0,0,0c0,0,0,0,0,0c-0.1,0-0.2-0.1-0.4-0.1c-0.1,0-0.2,0-0.4-0.1
								c-0.1,0-0.2,0-0.4,0c-0.1,0-0.2,0-0.3,0c-0.4,0-0.9,0-1.3,0.1c-0.4,0.1-0.8,0.3-1.1,0.5c-0.3,0.2-0.6,0.5-0.9,0.9
								c-0.3,0.4-0.5,0.9-0.7,1.4c0,0.1-0.1,0.2-0.2,0.3c-0.1,0.1-0.3,0.2-0.4,0.3c-0.2,0.1-0.3,0.2-0.5,0.2
								c-0.2,0.1-0.3,0.1-0.5,0.2c-0.5,0.2-1.1,0.4-1.6,0.7c-0.6,0.2-1.1,0.4-1.7,0.7c-0.6,0.2-1.1,0.4-1.7,0.7
								c-0.6,0.2-1.1,0.4-1.7,0.7c-0.4,0.2-0.8,0.4-1.1,0.8c-0.3,0.3-0.6,0.7-0.7,1.1c-0.2,0.4-0.2,0.9-0.2,1.3c0,0.5,0.1,1,0.3,1.4
								c0.1,0.3,0.2,0.5,0.3,0.7c0.1,0.2,0.3,0.3,0.4,0.4c0.1,0.1,0.3,0.2,0.5,0.2c0.2,0,0.3,0.1,0.5,0.1c0.1,0,0.3,0,0.4,0
								c0.1,0,0.3-0.1,0.4-0.1c0.2,0,0.3-0.1,0.5-0.1c0.2-0.1,0.3-0.1,0.5-0.2c0.9-0.3,1.7-0.7,2.6-1c0.9-0.3,1.7-0.7,2.6-1
								c0.9-0.3,1.8-0.7,2.6-1c0.9-0.3,1.8-0.7,2.7-1c-0.1,0.3-0.1,0.5-0.2,0.7c-0.1,0.2-0.1,0.4-0.2,0.6c-0.1,0.2-0.1,0.3-0.2,0.5
								c-0.1,0.2-0.1,0.3-0.2,0.5c-0.3,0.7-0.6,1.5-0.9,2.2c-0.3,0.8-0.6,1.5-0.9,2.3c-0.3,0.8-0.6,1.5-0.9,2.3
								c-0.3,0.8-0.6,1.5-1,2.3c-0.2,0.4-0.3,0.7-0.4,1.1c-0.1,0.3-0.1,0.6,0,0.9c0.1,0.3,0.2,0.5,0.4,0.7c0.2,0.2,0.5,0.4,0.9,0.6
								c0.1,0.1,0.3,0.1,0.4,0.2c0.1,0,0.3,0.1,0.4,0.1c0.1,0,0.3,0,0.4,0.1c0.1,0,0.3,0,0.4,0c0.3,0,0.6-0.1,0.8-0.1
								c0.3-0.1,0.5-0.2,0.7-0.3c0.2-0.1,0.4-0.3,0.6-0.5c0.2-0.2,0.3-0.4,0.4-0.7c0.3-0.6,0.5-1.1,0.8-1.7c0.2-0.6,0.5-1.1,0.7-1.7
								c0.2-0.6,0.5-1.1,0.7-1.7c0.2-0.6,0.5-1.1,0.8-1.6c0.1-0.2,0.2-0.5,0.4-0.7c0.1-0.2,0.3-0.5,0.5-0.7c0.2-0.2,0.4-0.4,0.5-0.6
								c0.2-0.2,0.4-0.3,0.6-0.4c0.4-0.2,0.7-0.4,1-0.6c0.3-0.2,0.5-0.5,0.7-0.8c0.2-0.3,0.3-0.6,0.3-1c0.1-0.4,0.1-0.7,0-1.2
								c0-0.2,0-0.4,0-0.6c0-0.2,0-0.4,0-0.6c0-0.2,0-0.4,0-0.6c0-0.2,0-0.4,0-0.6c0.9,0.4,1.8,0.8,2.7,1.3c0.9,0.4,1.8,0.8,2.7,1.2
								c0.9,0.4,1.8,0.8,2.7,1.2c0.9,0.4,1.8,0.8,2.7,1.3c-0.1,0.1-0.2,0.2-0.4,0.3c-0.1,0.1-0.2,0.2-0.3,0.3
								c-0.1,0.1-0.2,0.2-0.3,0.3c-0.1,0.1-0.2,0.2-0.3,0.3c-0.4,0.3-0.7,0.7-1,1c-0.3,0.4-0.5,0.7-0.6,1.1
								c-0.1,0.4-0.2,0.8-0.1,1.3c0,0.5,0.2,1,0.4,1.5c0.1,0.1,0.1,0.3,0.1,0.5c0,0.2,0,0.3,0,0.5c0,0.2-0.1,0.4-0.1,0.6
								c0,0.2-0.1,0.4-0.1,0.5c-0.1,0.4-0.3,0.8-0.4,1.2c-0.1,0.4-0.3,0.8-0.4,1.2c-0.2,0.4-0.3,0.8-0.5,1.2
								c-0.2,0.4-0.3,0.8-0.5,1.2c-0.3,0.9-0.6,1.5-0.7,2c-0.1,0.5-0.2,0.9-0.1,1.3c0.1,0.4,0.3,0.7,0.6,1.1
								c0.3,0.4,0.8,0.8,1.4,1.4c0.2,0,0.3,0,0.5,0c0.2,0,0.3,0,0.5,0c0.2,0,0.3,0,0.5,0c0.1,0,0.3,0,0.4,0c0.4-1,0.8-2,1.2-2.9
								c0.4-1,0.8-1.9,1.1-2.9c0.4-0.9,0.8-1.9,1.1-2.8c0.4-0.9,0.7-1.9,1.1-2.8c0,0,0.1,0,0.1,0c0,0,0.1,0,0.1,0c0,0,0.1,0,0.1,0
								c0,0,0.1,0,0.1,0c0.3,0.9,0.7,1.8,1,2.7c0.3,0.9,0.7,1.8,1,2.7c0.3,0.9,0.7,1.8,1,2.7c0.3,0.9,0.7,1.8,1,2.7
								c0.2,0,0.4,0,0.7-0.1c0.2,0,0.4,0,0.7-0.1c0.2,0,0.4,0,0.7-0.1c0.2,0,0.4,0,0.7-0.1c0.4-0.5,0.6-0.9,0.8-1.4
								c0.2-0.5,0.3-0.9,0.3-1.4c0-0.5-0.1-0.9-0.2-1.4c-0.1-0.5-0.3-1-0.6-1.5c-0.2-0.3-0.3-0.7-0.4-1c-0.1-0.3-0.3-0.7-0.4-1
								c-0.1-0.4-0.2-0.7-0.3-1.1c-0.1-0.4-0.2-0.7-0.3-1.1c0-0.1-0.1-0.3-0.1-0.4c0-0.1-0.1-0.3-0.1-0.4c0-0.1-0.1-0.3-0.1-0.4
								c0-0.1,0-0.2,0.1-0.3c0.3-0.7,0.5-1.3,0.5-1.8c0-0.5-0.1-1-0.2-1.5c-0.2-0.4-0.5-0.9-0.8-1.2c-0.3-0.4-0.7-0.8-1.1-1.1
								c-0.1-0.1-0.1-0.1-0.2-0.2c-0.1-0.1-0.1-0.1-0.2-0.2c0-0.1-0.1-0.1-0.1-0.2c0-0.1-0.1-0.1-0.1-0.1c0.8-0.4,1.7-0.8,2.5-1.2
								c0.8-0.4,1.6-0.8,2.4-1.1c0.8-0.4,1.6-0.7,2.4-1.1c0.8-0.4,1.6-0.7,2.3-1.1c0,0.2,0,0.5,0,0.7c0,0.2,0,0.5,0,0.7
								c0,0.2,0,0.5,0,0.7c0,0.2,0,0.5-0.1,0.7c-0.1,0.3-0.1,0.6,0,0.9c0,0.2,0.1,0.4,0.2,0.6c0.1,0.2,0.3,0.3,0.4,0.5
								c0.2,0.1,0.4,0.3,0.6,0.4c0.2,0.1,0.4,0.3,0.6,0.5c0.2,0.2,0.4,0.4,0.5,0.6c0.2,0.2,0.3,0.4,0.5,0.7c0.1,0.2,0.3,0.5,0.4,0.7
								c0.2,0.4,0.4,0.8,0.5,1.2c0.2,0.4,0.3,0.8,0.5,1.2c0.2,0.4,0.3,0.8,0.5,1.2c0.2,0.4,0.3,0.8,0.5,1.2c0.1,0.2,0.2,0.5,0.4,0.6
								c0.1,0.2,0.3,0.3,0.5,0.5c0.2,0.1,0.4,0.2,0.6,0.3c0.2,0.1,0.4,0.1,0.6,0.1c0.1,0,0.2,0,0.2,0c0.1,0,0.2,0,0.2-0.1
								c0.1,0,0.2-0.1,0.2-0.1c0.1,0,0.2-0.1,0.2-0.1c0.3-0.2,0.5-0.4,0.6-0.6c0.1-0.2,0.2-0.5,0.2-0.7c0-0.3,0-0.5-0.1-0.8
								c-0.1-0.3-0.2-0.6-0.3-0.9c-0.2-0.4-0.3-0.9-0.5-1.3c-0.2-0.4-0.3-0.9-0.5-1.3c-0.2-0.4-0.3-0.9-0.5-1.3
								c-0.2-0.4-0.3-0.9-0.5-1.3c-0.1-0.2-0.2-0.5-0.2-0.7c-0.1-0.3-0.2-0.5-0.2-0.8c-0.1-0.3-0.2-0.6-0.2-0.9
								c-0.1-0.3-0.2-0.6-0.3-0.9c0.7,0.3,1.4,0.6,2,0.9c0.6,0.3,1.3,0.6,1.9,0.9c0.6,0.3,1.2,0.6,1.8,0.8c0.6,0.3,1.2,0.5,1.7,0.8
								c0.1,0,0.1,0.1,0.2,0.1c0.1,0,0.1,0,0.2,0.1c0.1,0,0.1,0,0.2,0c0.1,0,0.1,0,0.2,0c0.1,0,0.3,0,0.4-0.1c0.1,0,0.2-0.1,0.3-0.2
								c0.1-0.1,0.2-0.2,0.2-0.4c0.1-0.1,0.1-0.3,0.2-0.5c0.1-0.4,0.1-0.8,0.1-1.2c0-0.4-0.1-0.7-0.2-1c-0.1-0.3-0.3-0.6-0.5-0.8
								c-0.2-0.2-0.5-0.5-0.8-0.6c-0.2-0.1-0.4-0.2-0.7-0.4c-0.2-0.1-0.4-0.2-0.7-0.4c-0.2-0.1-0.4-0.2-0.7-0.4
								c-0.2-0.1-0.4-0.2-0.7-0.3c-0.3-0.2-0.7-0.3-1-0.5c-0.3-0.2-0.6-0.4-0.9-0.7c-0.3-0.3-0.5-0.6-0.8-0.9
								c-0.2-0.3-0.4-0.7-0.6-1.2c0-0.1-0.1-0.2-0.2-0.3c-0.1-0.1-0.2-0.2-0.3-0.2c-0.1-0.1-0.2-0.1-0.4-0.2c-0.1,0-0.2-0.1-0.3-0.1
								c-0.1,0-0.2,0-0.3,0c-0.1,0-0.2,0-0.3,0c-0.1,0-0.2,0-0.3,0c-0.1,0-0.2,0-0.3,0c-0.1,0-0.3,0-0.4,0c-0.1,0-0.3,0-0.4,0
								c-0.1,0-0.3,0-0.4,0c-0.1,0-0.3,0-0.4,0c0.3-0.9,0.6-1.7,0.9-2.6c0.3-0.8,0.6-1.7,0.8-2.5c0.3-0.8,0.6-1.6,0.8-2.4
								c0.3-0.8,0.5-1.6,0.8-2.4c0.1,0.1,0.2,0.2,0.3,0.3c0.1,0.1,0.2,0.2,0.3,0.3c0.1,0.1,0.2,0.2,0.3,0.4c0.1,0.1,0.2,0.3,0.3,0.4
								c0.1,0.2,0.2,0.4,0.4,0.5c0.1,0.1,0.3,0.3,0.4,0.4c0.1,0.1,0.3,0.2,0.4,0.2c0.1,0.1,0.3,0.1,0.4,0.1c0.1,0,0.1,0,0.2,0
								c0.1,0,0.2,0,0.2,0c0.1,0,0.2,0,0.2-0.1c0.1,0,0.2,0,0.3-0.1c0.1,0,0.1,0,0.2-0.1c0.1,0,0.1,0,0.2,0c0.1,0,0.1,0,0.2,0
								c0.1,0,0.1,0,0.2,0c0.1,0,0.3,0,0.4,0c0.1,0,0.3,0.1,0.4,0.1c0.1,0,0.3,0.1,0.4,0.1c0.1,0,0.2,0.1,0.4,0.1
								c0.4,0.2,0.7,0.3,1.1,0.5c0.3,0.2,0.7,0.4,1,0.6c0.3,0.2,0.7,0.4,1,0.6c0.3,0.2,0.7,0.4,1,0.6c0,0,0.1,0,0.1,0
								c0,0,0.1,0,0.1,0c0,0,0.1,0,0.1,0c0,0,0.1,0,0.1,0c0.2,0,0.4,0,0.5-0.1c0.2-0.1,0.4-0.2,0.5-0.3c0.2-0.1,0.3-0.3,0.4-0.5
								c0.1-0.2,0.2-0.4,0.3-0.7c0.1-0.3,0.1-0.5,0.1-0.7c0-0.2,0-0.4-0.1-0.6c-0.1-0.2-0.2-0.4-0.3-0.5c-0.2-0.2-0.4-0.3-0.6-0.4
								c-0.3-0.1-0.5-0.3-0.8-0.5c-0.3-0.2-0.5-0.3-0.8-0.5c-0.3-0.2-0.5-0.4-0.8-0.5c-0.3-0.2-0.5-0.4-0.8-0.5
								c-0.3-0.2-0.5-0.3-0.8-0.5c-0.3-0.2-0.6-0.4-0.9-0.5c-0.3-0.2-0.6-0.4-0.9-0.6c-0.3-0.2-0.7-0.4-1-0.7
								c0.6-0.3,1.1-0.5,1.7-0.8c0.5-0.2,1-0.5,1.5-0.7c0.5-0.2,1-0.5,1.5-0.7c0.5-0.2,0.9-0.4,1.4-0.6c0.2-0.1,0.4-0.2,0.6-0.3
								c0.2-0.1,0.3-0.2,0.4-0.4c0.1-0.2,0.2-0.4,0.2-0.6c0-0.2-0.1-0.5-0.2-0.9c-0.1-0.3-0.2-0.5-0.4-0.7c-0.1-0.2-0.3-0.4-0.5-0.6
								c-0.2-0.2-0.3-0.3-0.5-0.4c-0.2-0.1-0.4-0.2-0.6-0.2c-0.1,0-0.1,0-0.2,0c-0.1,0-0.1,0-0.2,0c-0.1,0-0.1,0-0.2,0
								c-0.1,0-0.1,0-0.2,0c-0.3,0.1-0.6,0.2-0.9,0.3c-0.3,0.1-0.6,0.2-1,0.4c-0.3,0.1-0.6,0.2-1,0.4c-0.3,0.1-0.7,0.2-1,0.3
								c-0.1,0-0.2,0.1-0.2,0.1c-0.1,0-0.2,0-0.3,0.1c-0.1,0-0.2,0-0.3,0c-0.1,0-0.2,0-0.3,0c0,0-0.1,0-0.1,0c0,0-0.1,0-0.1,0
								c0,0-0.1,0-0.1,0c0,0,0,0-0.1,0c-0.1-0.1-0.3-0.2-0.4-0.3c-0.1-0.1-0.2-0.1-0.4-0.2c-0.1-0.1-0.2-0.1-0.3-0.1
								c-0.1,0-0.2-0.1-0.3-0.1c-0.2,0-0.5,0-0.7,0.1c-0.2,0.1-0.4,0.2-0.6,0.3c-0.2,0.1-0.4,0.3-0.5,0.5c-0.2,0.2-0.3,0.4-0.5,0.7
								c0,0-0.1,0.1-0.1,0.1c0,0-0.1,0-0.1,0.1c0,0-0.1,0-0.1,0c0,0-0.1,0-0.1,0c-0.3-0.8-0.6-1.5-0.9-2.3c-0.3-0.8-0.6-1.5-0.9-2.3
								c-0.3-0.8-0.6-1.5-0.9-2.3c-0.3-0.8-0.6-1.6-0.9-2.4c0.1,0,0.2,0,0.4,0.1c0.1,0,0.2,0,0.4,0.1c0.1,0,0.2,0,0.4,0.1
								c0.1,0,0.2,0,0.4,0.1c0.1,0,0.2,0,0.2,0c0.1,0,0.2,0,0.2,0c0.1,0,0.2,0,0.2,0c0.1,0,0.2,0,0.2,0c0.1,0,0.2,0,0.3,0
								c0.1,0,0.2-0.1,0.3-0.1c0.1-0.1,0.2-0.1,0.3-0.2c0.1-0.1,0.1-0.2,0.2-0.2c0.1-0.4,0.3-0.7,0.5-1c0.2-0.3,0.4-0.5,0.6-0.7
								c0.2-0.2,0.5-0.3,0.8-0.5c0.3-0.1,0.6-0.2,0.9-0.3c0.2-0.1,0.4-0.1,0.7-0.2c0.2-0.1,0.4-0.1,0.7-0.2c0.2-0.1,0.4-0.2,0.6-0.2
								c0.2-0.1,0.4-0.2,0.6-0.2c0.3-0.1,0.5-0.3,0.7-0.5c0.2-0.2,0.3-0.5,0.4-0.8c0.1-0.3,0.1-0.6,0-1c0-0.3-0.2-0.7-0.3-1
								c-0.1-0.1-0.1-0.3-0.2-0.4c-0.1-0.1-0.2-0.2-0.2-0.3c-0.1-0.1-0.2-0.2-0.3-0.2c-0.1-0.1-0.2-0.1-0.3-0.1c0,0-0.1,0-0.1,0
								c0,0-0.1,0-0.1,0c0,0-0.1,0-0.1,0c0,0-0.1,0-0.2,0c-0.2,0.1-0.3,0.1-0.5,0.2c-0.2,0-0.3,0.1-0.5,0.1c-0.2,0-0.3,0.1-0.5,0.1
								c-0.2,0-0.3,0.1-0.5,0.1c-0.4,0.1-0.8,0.2-1.2,0.3c-0.4,0.1-0.8,0.2-1.2,0.3c-0.4,0.1-0.9,0.2-1.3,0.3
								c-0.5,0.1-0.9,0.2-1.4,0.3c0.2-0.7,0.4-1.3,0.6-2c0.2-0.6,0.4-1.2,0.6-1.8c0.2-0.6,0.4-1.2,0.5-1.7c0.2-0.6,0.4-1.1,0.5-1.6
								c0.1-0.2,0.1-0.5,0.2-0.7c0-0.2,0-0.4,0-0.6c0-0.2-0.1-0.4-0.3-0.6c-0.1-0.2-0.3-0.4-0.6-0.5c-0.1-0.1-0.2-0.1-0.2-0.1
								c-0.1,0-0.2-0.1-0.2-0.1c-0.1,0-0.2-0.1-0.2-0.1c-0.1,0-0.2,0-0.2-0.1c-0.2,0-0.4-0.1-0.6-0.1c-0.2,0-0.4,0-0.5,0.1
								c-0.2,0.1-0.3,0.1-0.4,0.3c-0.1,0.1-0.2,0.3-0.3,0.4c-0.1,0.4-0.3,0.7-0.4,1.1c-0.1,0.4-0.3,0.7-0.4,1.1
								c-0.1,0.4-0.3,0.7-0.4,1.1c-0.1,0.4-0.3,0.7-0.4,1.1c0,0.1-0.1,0.2-0.1,0.3c0,0.1-0.1,0.2-0.2,0.3c-0.1,0.1-0.1,0.2-0.2,0.3
								c-0.1,0.1-0.1,0.1-0.2,0.1c-0.5,0.1-0.9,0.2-1.2,0.4c-0.3,0.2-0.5,0.5-0.6,0.9c-0.1,0.3-0.2,0.8-0.2,1.2c0,0.4,0,0.9,0.1,1.4
								c0,0,0,0.1,0,0.1c0,0,0,0.1,0,0.1c0,0,0,0.1,0,0.1c0,0,0,0,0,0c-0.7-0.4-1.4-0.9-2.1-1.3c-0.7-0.4-1.4-0.9-2.1-1.3
								c-0.7-0.4-1.5-0.9-2.2-1.4c-0.8-0.5-1.5-0.9-2.3-1.4c0.2-0.1,0.3-0.2,0.5-0.3c0.2-0.1,0.3-0.2,0.5-0.3
								c0.2-0.1,0.3-0.2,0.5-0.3c0.2-0.1,0.3-0.2,0.4-0.4c0.1-0.1,0.2-0.2,0.2-0.3c0.1-0.1,0.1-0.3,0.2-0.4c0-0.1,0.1-0.3,0.1-0.4
								c0-0.1,0-0.3,0-0.4c-0.2-0.4-0.3-0.9-0.3-1.2c-0.1-0.4-0.1-0.8,0-1.1c0-0.4,0.1-0.7,0.2-1.1c0.1-0.3,0.2-0.7,0.4-1
								c0.1-0.3,0.2-0.5,0.4-0.8c0.1-0.3,0.2-0.5,0.3-0.8c0.1-0.3,0.2-0.5,0.3-0.8c0.1-0.3,0.2-0.5,0.3-0.8c0.1-0.3,0.1-0.5,0.1-0.8
								c0-0.3-0.1-0.6-0.2-0.9c-0.1-0.3-0.3-0.6-0.5-0.8c-0.2-0.3-0.5-0.5-0.8-0.7c-0.1-0.1-0.1-0.1-0.2-0.1c-0.1,0-0.1-0.1-0.2-0.1
								c-0.1,0-0.1-0.1-0.2-0.1C98.2,23.8,98.1,23.8,98.1,23.8"/>
						</g>
					</g>
				</g>
			</g>
		</g>
	</g>
</g>
<g>
	<path class="st11" d="M39.7,36.5l25.3,36.4l-12.4-1c0.3,0.7,0.7,1.3,1.1,2c9.1,16.6,25.5,29.4,42.4,32.7l-10.4,8.6l16.6,9.2
		c-27.5-1.3-55.6-23.2-67.2-51.8c-0.3-0.7-0.6-1.4-0.8-2.1L16.1,69L39.7,36.5z"/>
	<path class="st12" d="M80.2,115.6C62.1,107.5,46,91.1,38,71.4c-0.3-0.7-0.5-1.3-0.8-2l-0.7-1.9L22,66.3l17.7-24.4l19,27.3
		l-11.3-0.9l2.5,5c0.4,0.7,0.7,1.4,1.1,2.1c8.6,15.6,22.9,27.7,38.4,32.6L80.2,115.6z"/>
</g>
<text transform="matrix(1 0 0 1 147.2097 59.9261)"><tspan x="0" y="0" class="st1 st13 st14 st15">KNEX.JS</tspan><tspan x="196.6" y="0" class="st1 st13 st16 st17"> </tspan><tspan x="0" y="34.8" class="st1 st13 st16 st17">DUMP MANAGER</tspan></text>
</svg>
